# xmcd
#
# Track frame offsets:
#	150
#	15149
#	26699
#	34912
#	61837
#	74811
#	88986
#
# Disc length: 1372 seconds
# Revision: 0
# Processed by: cddbd v1.5.2PL0 Copyright (c) Steve Scherf et al.
# Submitted via: dBpowerAMP V12.0
#
DISCID=58055a07
DTITLE=Rooster Burns And The Stetson Revolting - Lynchburg Lessons
DYEAR=2011
DGENRE=Country
TTITLE0=Death At High Noon
TTITLE1=Everlong
TTITLE2=Shoot First And Run Like Hell
TTITLE3=Holiday In Cambodia
TTITLE4=Lynchburg Lessons
TTITLE5=Cold Feelings
TTITLE6=Convoy In The Sky
EXTD=
EXTT0=
EXTT1=
EXTT2=
EXTT3=
EXTT4=
EXTT5=
EXTT6=
PLAYORDER=
